<?xml version="1.0" encoding="UTF-8"?>
<svg xmlns="http://www.w3.org/2000/svg" xmlns:inkscape="http://www.inkscape.org/namespaces/inkscape"
     width="1072" height="1072" viewBox="0 0 1072 1072">
  <rect width="100%" height="100%" fill="#f0dfc0"/>
  <g inkscape:groupmode="layer" inkscape:label="Border" fill="none" stroke="#5c4033" stroke-width="0.5" stroke-linecap="round">
    <rect x="43" y="43" width="986" height="986"/>
  </g>
  <g inkscape:groupmode="layer" inkscape:label="Signature">
    <text x="43" y="1051"
          font-family="Courier New, Courier, monospace" font-size="14"
          fill="#5c4033">Field Script · seed 0.731 0.242 0.317 0.005 0.321  2026-06-21 21:43</text>
  </g>
  <g inkscape:groupmode="layer" inkscape:label="Highways"
     fill="none" stroke="#5c4033" stroke-width="0.5" stroke-linecap="round">
    <path d="M 326.60 43.00 L 299.15 782.50"/>
    <path d="M 858.14 105.23 L 852.32 267.65"/>
    <path d="M 850.35 782.50 L 857.22 976.10"/>
    <path d="M 806.41 43.00 L 801.76 782.50"/>
    <path d="M 798.30 843.25 L 807.27 1022.24"/>
    <path d="M 563.19 289.50 L 568.99 782.50"/>
    <path d="M 56.25 43.00 L 35.96 536.00"/>
  </g>
  <g inkscape:groupmode="layer" inkscape:label="Segments"
     fill="none" stroke="#5c4033" stroke-width="0.5" stroke-linecap="round">
    <path d="M 785.68 119.15 C 786.61 114.73 787.93 114.73 788.86 119.52 M 793.03 120.76 C 794.52 114.89 796.88 114.89 798.37 120.34 M 807.12 115.51 C 808.92 106.70 811.60 106.70 813.41 116.34 M 818.53 106.73 C 818.72 109.60 827.82 113.35 826.57 116.83 M 839.10 107.08 C 839.33 110.62 831.17 115.24 832.71 119.53 M 850.74 108.04 C 851.08 113.42 865.32 120.44 862.98 126.94 M 882.00 108.43 C 882.37 114.57 871.33 122.58 874.00 130.00 M 784.26 126.58 C 785.91 121.52 788.57 121.52 790.22 126.72 M 795.01 135.00 C 795.24 138.56 784.36 143.20 785.91 147.51 M 794.26 126.10 C 795.75 121.37 798.22 121.37 799.72 126.23 M 797.32 130.27 C 797.45 132.27 793.86 134.88 794.73 137.30 M 802.06 134.37 C 802.21 136.71 806.97 139.78 805.94 142.61 M 802.65 142.99 C 802.80 145.34 806.97 148.40 805.94 151.24 M 807.84 122.37 C 808.07 125.89 814.98 130.48 813.45 134.73 M 814.78 134.18 C 814.91 136.16 809.23 138.75 810.09 141.14 M 809.61 142.80 C 809.74 144.78 815.78 147.37 814.92 149.77 M 820.11 119.23 C 820.29 122.11 827.82 125.86 826.57 129.33 M 826.90 134.99 C 827.12 138.54 818.67 143.17 820.21 147.47 M 854.36 130.14 C 854.54 133.04 846.24 136.83 847.51 140.34 M 854.20 142.77 C 854.38 145.67 846.24 149.46 847.51 152.97 M 862.79 129.92 C 862.94 132.39 858.65 135.63 859.72 138.62 M 865.35 142.54 C 865.50 145.02 858.65 148.25 859.72 151.25 M 870.26 130.33 C 870.46 133.60 880.64 137.87 879.22 141.82 M 887.58 130.12 C 887.75 132.99 893.33 136.73 892.08 140.20 M 884.64 142.60 C 884.80 145.47 893.33 149.21 892.08 152.68 M 784.63 172.11 C 784.85 175.56 795.69 180.05 794.19 184.22 M 785.93 153.83 C 786.15 157.39 796.12 162.04 794.57 166.34 M 800.07 153.20 C 800.21 155.55 806.96 158.61 805.94 161.44 M 806.04 161.83 C 806.18 164.18 799.20 167.24 800.23 170.08 M 800.44 156.82 C 800.62 159.68 808.43 163.41 807.19 166.86 M 800.37 171.80 C 800.55 174.66 808.43 178.39 807.19 181.85 M 812.47 153.01 C 812.59 155.00 815.78 157.59 814.92 159.99 M 813.53 161.65 C 813.66 163.63 809.22 166.22 810.08 168.62 M 814.52 156.89 C 814.71 159.88 821.39 163.79 820.08 167.41 M 816.23 167.54 C 816.41 170.54 821.39 174.45 820.08 178.07 M 826.92 167.26 C 828.56 169.18 826.29 173.44 826.68 175.36 M 847.21 162.67 C 848.04 176.75 887.48 195.11 881.36 212.13 M 945.82 171.42 C 1006.87 184.84 916.96 259.98 947.54 273.40 M 53.32 291.43 C 53.46 295.14 44.93 299.97 46.55 304.45 M 67.71 291.15 C 67.83 294.31 60.77 298.44 62.14 302.26 M 78.67 290.48 C 78.75 292.35 73.84 294.79 74.66 297.05 M 93.62 291.32 C 93.77 294.82 103.55 299.37 102.03 303.60 M 124.34 291.25 C 124.49 294.59 131.36 298.96 129.91 303.00 M 139.33 300.30 C 140.12 290.99 141.03 290.99 141.81 300.66 M 53.29 305.19 C 53.43 308.89 44.93 313.73 46.55 318.21 M 68.32 304.90 C 69.71 307.38 69.61 312.88 70.42 315.35 M 78.35 299.66 C 78.96 301.12 79.78 304.37 78.74 305.84 M 80.28 316.02 C 80.57 317.68 80.43 321.36 80.97 323.02 M 79.18 323.12 C 78.17 324.79 79.85 328.49 79.19 330.16 M 87.97 322.96 C 89.23 324.39 87.70 327.56 87.03 328.99 M 88.31 307.79 C 89.16 309.24 87.14 312.49 88.35 313.94 M 93.43 308.64 C 93.56 312.13 103.55 316.69 102.03 320.91 M 109.16 304.27 C 109.28 307.30 116.97 311.26 115.66 314.92 M 113.60 318.82 C 113.71 321.86 106.96 325.83 108.28 329.51 M 123.23 325.79 C 124.99 318.63 127.97 318.63 129.72 326.13 M 154.41 312.18 C 155.79 305.21 157.94 305.21 159.31 311.96 M 54.03 323.92 C 54.15 327.60 44.92 332.39 46.52 336.84 M 51.39 337.80 C 51.49 341.48 44.92 346.27 46.52 350.72 M 64.61 323.67 C 65.57 326.17 65.95 331.72 64.83 334.22 M 79.61 331.06 C 80.63 332.73 79.79 336.44 78.86 338.11 M 78.66 341.28 C 77.05 344.38 78.16 351.27 77.35 354.37 M 83.88 330.90 C 83.78 332.33 84.09 335.50 84.57 336.93 M 95.69 323.84 C 95.81 327.35 103.54 331.94 102.01 336.19 M 100.32 341.05 C 100.43 344.57 91.92 349.16 93.45 353.41 M 100.94 353.02 C 101.00 355.23 96.93 358.10 97.89 360.77 M 122.81 339.84 C 124.47 333.15 127.32 333.15 128.99 340.19 M 141.69 337.76 C 144.83 320.10 149.99 320.10 153.12 335.42 M 46.89 353.46 C 46.97 356.50 54.64 360.47 53.32 364.14 M 48.79 366.68 C 48.85 369.73 54.64 373.69 53.32 377.37 M 61.62 366.88 C 61.70 370.31 69.33 374.77 67.84 378.91 M 74.68 353.82 C 74.37 356.73 76.79 363.22 77.09 366.14 M 82.73 370.03 C 83.17 372.95 82.55 379.43 83.88 382.35 M 89.04 362.47 C 89.13 363.99 87.84 367.38 88.40 368.90 M 90.60 369.25 C 91.55 370.99 91.59 374.87 91.83 376.62 M 89.42 377.59 C 89.47 379.82 95.86 382.73 94.89 385.43 M 101.88 362.61 C 101.93 364.82 96.93 367.69 97.89 370.36 M 100.41 369.09 C 100.45 371.00 104.37 373.51 103.53 375.83 M 116.20 353.61 C 116.29 356.96 107.11 361.32 108.57 365.36 M 139.20 372.64 C 143.64 354.82 151.54 354.82 155.98 370.67 M 47.86 389.50 C 47.97 395.97 67.74 404.40 64.93 412.22 M 78.52 402.76 C 78.55 404.76 72.16 407.38 73.03 409.80 M 76.65 412.71 C 76.68 414.72 72.16 417.33 73.03 419.75 M 79.81 387.32 C 79.86 389.61 72.31 392.59 73.30 395.36 M 76.06 397.27 C 76.10 399.56 79.87 402.54 78.87 405.31 M 84.41 402.91 C 84.45 405.20 88.59 408.18 87.59 410.95 M 85.37 387.17 C 85.41 389.18 88.74 391.79 87.87 394.22 M 95.03 388.00 C 95.10 391.58 103.50 396.26 101.94 400.59 M 121.42 385.82 C 121.56 391.99 108.59 400.04 111.27 407.50 M 61.12 430.46 C 61.18 458.04 148.54 494.02 136.55 527.36 M 846.95 799.69 C 850.32 784.87 858.16 784.87 861.53 801.07"/>
    <path d="M 873.46 789.77 C 873.76 783.70 874.88 783.70 875.17 789.24 M 872.18 802.53 C 873.50 796.17 876.69 796.17 878.02 801.57 M 882.70 792.07 C 885.01 783.90 890.20 783.90 892.50 791.57 M 857.08 812.54 C 856.79 818.23 846.22 825.66 848.70 832.53 M 871.58 811.34 C 871.42 814.72 880.93 819.13 879.46 823.22 M 871.42 826.05 C 871.25 829.43 880.93 833.84 879.46 837.93 M 887.19 818.45 C 887.92 810.76 889.89 810.76 890.62 818.70 M 884.86 831.75 C 886.03 825.47 888.89 825.47 890.05 831.90 M 75.54 859.72 C 81.97 793.19 101.15 793.19 107.58 858.43 M 172.30 873.10 C 194.76 795.47 249.30 795.47 271.76 875.21 M 789.80 861.87 C 791.56 845.94 796.59 845.94 798.35 863.34"/>
    <path d="M 812.45 845.06 C 812.26 848.51 823.68 853.02 822.17 857.20 M 827.15 844.20 C 827.05 846.02 832.44 848.40 831.65 850.60 M 831.49 852.12 C 831.39 853.94 826.43 856.31 827.22 858.51 M 840.55 844.44 C 840.43 846.71 834.58 849.67 835.56 852.41 M 838.52 852.35 C 838.40 854.62 834.58 857.58 835.56 860.32 M 954.40 878.28 C 967.06 795.36 997.44 795.36 1010.10 885.08 M 786.41 880.11 C 787.69 872.67 791.08 872.67 792.36 879.78 M 788.42 893.97 C 788.84 885.47 790.51 885.47 790.94 893.77 M 800.44 880.53 C 802.18 872.44 806.35 872.44 808.09 881.23 M 804.12 885.55 C 807.94 886.83 800.17 893.99 801.31 895.27 M 812.48 871.00 C 813.90 862.47 817.51 862.47 818.92 871.92 M 828.56 892.69 C 829.37 887.15 831.48 887.15 832.29 892.25 M 828.58 887.37 C 829.75 882.01 832.59 882.01 833.77 887.17 M 827.40 866.91 C 828.48 861.98 831.12 861.98 832.20 866.68 M 829.83 875.30 C 830.35 869.86 831.88 869.86 832.40 875.94 M 836.52 891.45 C 837.73 886.98 840.54 886.98 841.75 891.96 M 838.77 876.68 C 839.38 871.97 840.98 871.97 841.58 876.83 M 837.52 886.60 C 838.22 881.83 840.04 881.83 840.74 886.48 M 838.21 866.50 C 838.90 861.79 840.67 861.79 841.36 866.77 M 789.06 917.80 C 791.63 918.94 784.75 925.31 789.76 926.45 M 797.13 918.01 C 804.46 919.33 796.49 926.71 800.94 928.03 M 829.43 901.66 C 830.05 896.96 831.80 896.96 832.42 902.10 M 837.62 901.84 C 838.19 896.78 839.71 896.78 840.28 902.17 M 787.42 929.18 C 791.63 930.32 784.75 936.70 787.43 937.83 M 792.70 942.58 C 793.14 943.91 785.13 951.34 792.23 952.67 M 800.23 929.40 C 804.45 930.72 796.49 938.09 802.54 939.41 M 816.10 918.27 C 819.32 919.79 810.07 928.35 811.61 929.88 M 825.46 931.07 C 832.83 932.37 824.91 939.69 826.58 941.00 M 833.06 943.86 C 823.95 942.40 823.95 952.60 833.06 951.14 M 884.33 929.56 C 842.56 922.88 842.56 969.65 884.33 962.97 M 788.43 955.86 C 793.14 957.18 785.13 964.62 786.72 965.94 M 805.03 956.75 C 797.13 955.48 797.13 964.33 805.03 963.07 M 819.63 959.70 C 808.90 957.98 808.90 970.00 819.63 968.28 M 833.06 959.19 C 823.95 957.73 823.95 967.93 833.06 966.47 M 825.88 980.97 C 788.85 975.05 788.85 1016.53 825.88 1010.60"/>
  </g>
  <g inkscape:groupmode="layer" inkscape:label="Threads"
     fill="none" stroke="#8b7355" stroke-width="0.25" stroke-linecap="round" opacity="0.6">
    <path d="M 788.86 119.52 L 793.03 120.76"/>
    <path d="M 798.37 120.34 L 807.12 115.51"/>
    <path d="M 813.41 116.34 L 818.53 106.73"/>
    <path d="M 826.57 116.83 L 839.10 107.08"/>
    <path d="M 832.71 119.53 L 850.74 108.04"/>
    <path d="M 862.98 126.94 L 882.00 108.43"/>
    <path d="M 874.00 130.00 L 784.26 126.58"/>
    <path d="M 790.22 126.72 L 795.01 135.00"/>
    <path d="M 785.91 147.51 L 794.26 126.10"/>
    <path d="M 799.72 126.23 L 797.32 130.27"/>
    <path d="M 794.73 137.30 L 802.06 134.37"/>
    <path d="M 805.94 142.61 L 802.65 142.99"/>
    <path d="M 805.94 151.24 L 807.84 122.37"/>
    <path d="M 813.45 134.73 L 814.78 134.18"/>
    <path d="M 810.09 141.14 L 809.61 142.80"/>
    <path d="M 814.92 149.77 L 820.11 119.23"/>
    <path d="M 826.57 129.33 L 826.90 134.99"/>
    <path d="M 820.21 147.47 L 854.36 130.14"/>
    <path d="M 847.51 140.34 L 854.20 142.77"/>
    <path d="M 847.51 152.97 L 862.79 129.92"/>
    <path d="M 859.72 138.62 L 865.35 142.54"/>
    <path d="M 859.72 151.25 L 870.26 130.33"/>
    <path d="M 879.22 141.82 L 887.58 130.12"/>
    <path d="M 892.08 140.20 L 884.64 142.60"/>
    <path d="M 892.08 152.68 L 784.63 172.11"/>
    <path d="M 794.19 184.22 L 785.93 153.83"/>
    <path d="M 794.57 166.34 L 800.07 153.20"/>
    <path d="M 805.94 161.44 L 806.04 161.83"/>
    <path d="M 800.23 170.08 L 800.44 156.82"/>
    <path d="M 807.19 166.86 L 800.37 171.80"/>
    <path d="M 807.19 181.85 L 812.47 153.01"/>
    <path d="M 814.92 159.99 L 813.53 161.65"/>
    <path d="M 810.08 168.62 L 814.52 156.89"/>
    <path d="M 820.08 167.41 L 816.23 167.54"/>
    <path d="M 820.08 178.07 L 826.92 167.26"/>
    <path d="M 826.68 175.36 L 847.21 162.67"/>
    <path d="M 881.36 212.13 L 945.82 171.42"/>
    <path d="M 947.54 273.40 L 53.32 291.43"/>
    <path d="M 46.55 304.45 L 67.71 291.15"/>
    <path d="M 62.14 302.26 L 78.67 290.48"/>
    <path d="M 74.66 297.05 L 93.62 291.32"/>
    <path d="M 102.03 303.60 L 124.34 291.25"/>
    <path d="M 129.91 303.00 L 139.33 300.30"/>
    <path d="M 141.81 300.66 L 53.29 305.19"/>
    <path d="M 46.55 318.21 L 68.32 304.90"/>
    <path d="M 70.42 315.35 L 78.35 299.66"/>
    <path d="M 78.74 305.84 L 80.28 316.02"/>
    <path d="M 80.97 323.02 L 79.18 323.12"/>
    <path d="M 79.19 330.16 L 87.97 322.96"/>
    <path d="M 87.03 328.99 L 88.31 307.79"/>
    <path d="M 88.35 313.94 L 93.43 308.64"/>
    <path d="M 102.03 320.91 L 109.16 304.27"/>
    <path d="M 115.66 314.92 L 113.60 318.82"/>
    <path d="M 108.28 329.51 L 123.23 325.79"/>
    <path d="M 129.72 326.13 L 154.41 312.18"/>
    <path d="M 159.31 311.96 L 54.03 323.92"/>
    <path d="M 46.52 336.84 L 51.39 337.80"/>
    <path d="M 46.52 350.72 L 64.61 323.67"/>
    <path d="M 64.83 334.22 L 79.61 331.06"/>
    <path d="M 78.86 338.11 L 78.66 341.28"/>
    <path d="M 77.35 354.37 L 83.88 330.90"/>
    <path d="M 84.57 336.93 L 95.69 323.84"/>
    <path d="M 102.01 336.19 L 100.32 341.05"/>
    <path d="M 93.45 353.41 L 100.94 353.02"/>
    <path d="M 97.89 360.77 L 122.81 339.84"/>
    <path d="M 128.99 340.19 L 141.69 337.76"/>
    <path d="M 153.12 335.42 L 46.89 353.46"/>
    <path d="M 53.32 364.14 L 48.79 366.68"/>
    <path d="M 53.32 377.37 L 61.62 366.88"/>
    <path d="M 67.84 378.91 L 74.68 353.82"/>
    <path d="M 77.09 366.14 L 82.73 370.03"/>
    <path d="M 83.88 382.35 L 89.04 362.47"/>
    <path d="M 88.40 368.90 L 90.60 369.25"/>
    <path d="M 91.83 376.62 L 89.42 377.59"/>
    <path d="M 94.89 385.43 L 101.88 362.61"/>
    <path d="M 97.89 370.36 L 100.41 369.09"/>
    <path d="M 103.53 375.83 L 116.20 353.61"/>
    <path d="M 108.57 365.36 L 139.20 372.64"/>
    <path d="M 155.98 370.67 L 47.86 389.50"/>
    <path d="M 64.93 412.22 L 78.52 402.76"/>
    <path d="M 73.03 409.80 L 76.65 412.71"/>
    <path d="M 73.03 419.75 L 79.81 387.32"/>
    <path d="M 73.30 395.36 L 76.06 397.27"/>
    <path d="M 78.87 405.31 L 84.41 402.91"/>
    <path d="M 87.59 410.95 L 85.37 387.17"/>
    <path d="M 87.87 394.22 L 95.03 388.00"/>
    <path d="M 101.94 400.59 L 121.42 385.82"/>
    <path d="M 111.27 407.50 L 61.12 430.46"/>
    <path d="M 136.55 527.36 L 846.95 799.69"/>
    <path d="M 875.17 789.24 L 872.18 802.53"/>
    <path d="M 878.02 801.57 L 882.70 792.07"/>
    <path d="M 892.50 791.57 L 857.08 812.54"/>
    <path d="M 848.70 832.53 L 871.58 811.34"/>
    <path d="M 879.46 823.22 L 871.42 826.05"/>
    <path d="M 879.46 837.93 L 887.19 818.45"/>
    <path d="M 890.62 818.70 L 884.86 831.75"/>
    <path d="M 890.05 831.90 L 75.54 859.72"/>
    <path d="M 107.58 858.43 L 172.30 873.10"/>
    <path d="M 271.76 875.21 L 789.80 861.87"/>
    <path d="M 822.17 857.20 L 827.15 844.20"/>
    <path d="M 831.65 850.60 L 831.49 852.12"/>
    <path d="M 827.22 858.51 L 840.55 844.44"/>
    <path d="M 835.56 852.41 L 838.52 852.35"/>
    <path d="M 835.56 860.32 L 954.40 878.28"/>
    <path d="M 1010.10 885.08 L 786.41 880.11"/>
    <path d="M 792.36 879.78 L 788.42 893.97"/>
    <path d="M 790.94 893.77 L 800.44 880.53"/>
    <path d="M 808.09 881.23 L 804.12 885.55"/>
    <path d="M 801.31 895.27 L 812.48 871.00"/>
    <path d="M 818.92 871.92 L 828.56 892.69"/>
    <path d="M 832.29 892.25 L 828.58 887.37"/>
    <path d="M 833.77 887.17 L 827.40 866.91"/>
    <path d="M 832.20 866.68 L 829.83 875.30"/>
    <path d="M 832.40 875.94 L 836.52 891.45"/>
    <path d="M 841.75 891.96 L 838.77 876.68"/>
    <path d="M 841.58 876.83 L 837.52 886.60"/>
    <path d="M 840.74 886.48 L 838.21 866.50"/>
    <path d="M 841.36 866.77 L 789.06 917.80"/>
    <path d="M 789.76 926.45 L 797.13 918.01"/>
    <path d="M 800.94 928.03 L 829.43 901.66"/>
    <path d="M 832.42 902.10 L 837.62 901.84"/>
    <path d="M 840.28 902.17 L 787.42 929.18"/>
    <path d="M 787.43 937.83 L 792.70 942.58"/>
    <path d="M 792.23 952.67 L 800.23 929.40"/>
    <path d="M 802.54 939.41 L 816.10 918.27"/>
    <path d="M 811.61 929.88 L 825.46 931.07"/>
    <path d="M 826.58 941.00 L 833.06 943.86"/>
    <path d="M 833.06 951.14 L 884.33 929.56"/>
    <path d="M 884.33 962.97 L 788.43 955.86"/>
    <path d="M 786.72 965.94 L 805.03 956.75"/>
    <path d="M 805.03 963.07 L 819.63 959.70"/>
    <path d="M 819.63 968.28 L 833.06 959.19"/>
    <path d="M 833.06 966.47 L 825.88 980.97"/>
  </g>
</svg>