<?xml version="1.0" encoding="UTF-8"?>
<svg xmlns="http://www.w3.org/2000/svg" xmlns:inkscape="http://www.inkscape.org/namespaces/inkscape"
     width="1072" height="1072" viewBox="0 0 1072 1072">
  <rect width="100%" height="100%" fill="#f0dfc0"/>
  <g inkscape:groupmode="layer" inkscape:label="Border" fill="none" stroke="#5c4033" stroke-width="0.5" stroke-linecap="round">
    <rect x="43" y="43" width="986" height="986"/>
  </g>
  <g inkscape:groupmode="layer" inkscape:label="Signature">
    <text x="43" y="1051"
          font-family="Courier New, Courier, monospace" font-size="14"
          fill="#5c4033">Field Script · seed 0.931 0.366 0.857 0.440 0.026  2026-06-21 22:13</text>
  </g>
  <g inkscape:groupmode="layer" inkscape:label="Highways"
     fill="none" stroke="#5c4033" stroke-width="0.5" stroke-linecap="round">
    <path d="M 397.52 43.00 L 391.76 150.00"/>
    <path d="M 393.04 843.07 L 397.25 925.67"/>
    <path d="M 545.65 43.00 L 532.33 289.50"/>
    <path d="M 292.31 43.00 L 287.23 143.26"/>
    <path d="M 291.76 229.64 L 288.97 293.14"/>
    <path d="M 291.02 402.96 L 289.36 464.74"/>
    <path d="M 288.45 843.07 L 291.16 903.65"/>
  </g>
  <g inkscape:groupmode="layer" inkscape:label="Segments"
     fill="none" stroke="#5c4033" stroke-width="0.5" stroke-linecap="round">
    <path d="M 515.73 448.17 C 436.91 435.56 436.91 523.84 515.73 511.23 M 266.67 409.09 C 286.16 405.97 286.16 427.80 266.67 424.68 M 277.32 440.16 C 287.72 438.50 287.72 450.14 277.32 448.48 M 277.32 453.15 C 287.72 451.48 287.72 463.13 277.32 461.47 M 263.99 452.74 C 273.08 451.28 273.08 461.46 263.99 460.01 M 246.91 422.86 C 259.50 420.85 259.50 434.95 246.91 432.93 M 230.59 406.47 C 241.76 404.68 241.76 417.18 230.59 415.40 M 246.91 406.92 C 259.50 404.90 259.50 419.00 246.91 416.99 M 292.62 279.63 C 304.75 277.69 304.75 291.27 292.62 289.33 M 292.62 265.21 C 304.75 263.27 304.75 276.85 292.62 274.91 M 298.27 248.74 C 303.84 250.45 292.21 259.99 292.01 261.70 M 312.06 263.13 C 318.96 264.57 309.11 272.65 312.78 274.09 M 330.42 275.86 C 332.12 277.15 323.29 284.38 326.59 285.68 M 319.05 248.46 C 318.93 249.93 308.88 258.16 313.92 259.63 M 339.63 276.13 C 346.96 277.65 336.56 286.16 345.85 287.68 M 345.04 263.22 C 346.96 264.74 336.56 273.24 337.11 274.76 M 358.87 241.28 C 395.88 235.35 395.88 276.80 358.87 270.88 M 414.39 272.82 C 404.00 271.16 404.00 282.79 414.39 281.13 M 452.30 293.13 C 436.66 290.63 436.66 308.14 452.30 305.64 M 465.76 271.80 C 472.07 273.66 459.22 284.11 467.79 285.97 M 464.95 290.45 C 472.07 292.32 459.22 302.76 461.04 304.63 M 478.97 245.99 C 480.92 239.21 483.70 239.21 485.66 245.08 M 486.89 254.19 C 487.32 255.65 477.25 263.84 477.02 265.30 M 484.33 268.26 C 490.12 270.05 477.77 280.11 490.47 281.90 M 492.57 250.80 C 495.01 239.54 498.47 239.54 500.91 251.65 M 501.91 254.60 C 504.87 256.41 492.42 266.55 495.32 268.36 M 501.62 267.88 C 505.39 269.36 495.24 277.63 504.38 279.11 M 505.04 287.31 C 494.70 285.65 494.70 297.24 505.04 295.58 M 514.75 255.28 C 520.86 256.84 510.14 265.58 513.26 267.14 M 520.34 284.91 C 509.55 283.18 509.55 295.27 520.34 293.54 M 531.52 254.93 C 534.01 256.20 525.30 263.31 533.92 264.58 M 530.39 267.65 C 533.97 268.94 525.14 276.16 530.68 277.44 M 525.41 283.07 C 533.97 284.35 525.15 291.57 528.35 292.86 M 674.01 433.18 C 676.57 426.03 681.44 426.03 684.00 432.79 M 677.78 450.79 C 678.53 443.38 679.87 443.38 680.62 451.86 M 680.13 473.77 C 682.92 455.02 688.30 455.02 691.10 474.68 M 689.05 454.14 C 690.82 443.59 694.18 443.59 695.95 455.29 M 727.74 438.93 C 728.29 440.40 718.72 448.66 718.66 450.14 M 752.12 438.25 C 743.29 436.83 743.29 446.73 752.12 445.31 M 777.44 430.76 C 757.77 427.61 757.77 449.64 777.44 446.50 M 732.48 436.78 C 739.86 437.87 732.79 443.97 733.57 445.06 M 706.20 444.42 C 708.03 438.37 711.53 438.37 713.35 445.14 M 739.56 425.88 C 739.87 426.97 732.79 433.07 732.31 434.16 M 390.30 143.82 C 392.84 136.18 396.70 136.18 399.24 142.90 M 376.84 143.42 C 378.25 135.91 380.09 135.91 381.51 144.35 M 63.42 427.92 C 142.84 415.21 142.84 504.17 63.42 491.46 M 291.61 125.42 C 292.98 120.00 294.86 120.00 296.23 124.89 M 293.69 113.24 C 295.41 107.38 297.99 107.38 299.71 112.71 M 306.09 139.54 C 307.84 132.63 310.42 132.63 312.17 139.08 M 294.36 102.04 C 295.71 95.59 297.56 95.59 298.92 101.38 M 309.43 120.37 C 311.93 121.62 303.31 128.66 303.44 129.92 M 304.15 101.85 C 305.42 95.67 307.01 95.67 308.28 102.15 M 319.75 133.51 C 325.78 134.92 316.11 142.82 315.84 144.22 M 330.93 133.38 C 338.93 134.68 330.02 141.94 335.81 143.23 M 334.73 120.42 C 338.93 121.71 330.02 128.97 339.10 130.27 M 330.21 109.01 C 338.93 110.31 329.99 117.59 338.70 118.89 M 346.91 112.19 C 356.08 113.98 343.75 124.01 344.81 125.80 M 363.16 126.25 C 369.23 129.60 346.18 148.35 350.89 151.70 M 352.28 96.61 C 356.08 98.40 343.75 108.43 345.18 110.22 M 369.29 96.33 C 372.03 97.89 361.30 106.61 369.59 108.17 M 378.21 131.09 C 379.54 123.43 381.22 123.43 382.55 130.11 M 381.14 116.74 C 382.97 108.50 385.44 108.50 387.27 115.65 M 395.01 114.89 C 395.72 108.25 396.14 108.25 396.85 115.45 M 526.80 875.06 C 527.76 869.64 530.50 869.64 531.46 874.76 M 514.67 880.68 C 522.86 881.98 515.17 889.26 518.45 890.56 M 505.38 870.49 C 509.34 872.04 500.19 880.72 503.95 882.27 M 506.46 885.98 C 509.34 887.53 500.19 896.21 500.27 897.76 M 493.54 865.02 C 496.04 847.83 503.22 847.83 505.72 867.05 M 488.90 870.13 C 494.48 871.37 487.13 878.33 490.10 879.58 M 476.14 865.47 C 476.66 858.97 478.70 858.97 479.22 865.85 M 459.89 882.61 C 462.05 874.77 467.60 874.77 469.75 881.72 M 469.66 887.63 C 468.90 889.20 459.67 897.95 462.45 899.51 M 446.06 874.94 C 447.22 865.56 450.80 865.56 451.97 875.19 M 452.47 875.10 C 453.33 876.63 444.30 885.20 453.02 886.73 M 449.77 890.41 C 453.33 891.94 444.30 900.51 448.95 902.04 M 438.79 890.88 C 437.22 892.80 425.88 903.56 428.62 905.48 M 425.39 866.33 C 436.98 868.23 425.82 878.82 435.93 880.71 M 371.06 884.16 C 379.59 885.65 370.77 894.02 374.08 895.52 M 338.22 886.56 C 339.09 877.76 342.25 877.76 343.13 885.44 M 336.90 870.42 C 338.70 859.66 343.72 859.66 345.52 870.41 M 320.75 884.46 C 322.19 877.49 326.24 877.49 327.68 883.86 M 320.78 866.42 C 322.54 859.34 327.21 859.34 328.97 866.43 M 308.24 879.36 C 311.47 882.12 295.13 897.57 293.02 900.33 M 324.23 892.92 C 329.09 894.43 320.18 902.87 321.18 904.37 M 342.67 893.26 C 346.41 895.05 335.84 905.08 335.34 906.87 M 355.94 899.43 C 364.09 901.19 353.68 911.06 360.90 912.83 M 408.70 906.13 C 418.33 907.90 407.92 917.77 412.23 919.54 M 943.31 468.03 C 934.45 466.61 934.45 476.53 943.31 475.11 M 943.31 455.37 C 934.45 453.95 934.45 463.87 943.31 462.46 M 935.17 427.97 C 944.06 426.54 944.06 436.50 935.17 435.08 M 1002.40 426.94 C 1003.31 428.41 993.79 436.65 998.63 438.13 M 1018.75 426.69 C 1026.76 427.96 1018.57 435.05 1022.25 436.32 M 1010.41 436.85 C 1014.49 437.90 1007.75 443.74 1010.86 444.78 M 1019.03 437.12 C 1026.75 438.39 1018.58 445.48 1022.34 446.75 M 994.29 439.44 C 1003.30 440.91 993.80 449.15 996.60 450.62 M 960.02 444.55 C 947.70 442.58 947.70 456.38 960.02 454.41 M 1027.21 449.54 C 1027.11 450.60 1020.27 456.55 1023.00 457.61 M 1012.50 449.76 C 1016.15 451.01 1008.13 457.99 1015.52 459.24 M 988.50 451.53 C 1001.05 454.25 983.56 469.49 988.55 472.21 M 1014.45 462.23 C 1016.14 463.48 1008.14 470.46 1013.03 471.71"/>
  </g>
  <g inkscape:groupmode="layer" inkscape:label="Threads"
     fill="none" stroke="#843c41" stroke-width="0.25" stroke-linecap="round" opacity="1">
    <path d="M 515.73 511.23 L 266.67 409.09"/>
    <path d="M 266.67 424.68 L 277.32 440.16"/>
    <path d="M 277.32 448.48 L 277.32 453.15"/>
    <path d="M 277.32 461.47 L 263.99 452.74"/>
    <path d="M 263.99 460.01 L 246.91 422.86"/>
    <path d="M 246.91 432.93 L 230.59 406.47"/>
    <path d="M 230.59 415.40 L 246.91 406.92"/>
    <path d="M 246.91 416.99 L 292.62 279.63"/>
    <path d="M 292.62 289.33 L 292.62 265.21"/>
    <path d="M 292.62 274.91 L 298.27 248.74"/>
    <path d="M 292.01 261.70 L 312.06 263.13"/>
    <path d="M 312.78 274.09 L 330.42 275.86"/>
    <path d="M 326.59 285.68 L 319.05 248.46"/>
    <path d="M 313.92 259.63 L 339.63 276.13"/>
    <path d="M 345.85 287.68 L 345.04 263.22"/>
    <path d="M 337.11 274.76 L 358.87 241.28"/>
    <path d="M 358.87 270.88 L 414.39 272.82"/>
    <path d="M 414.39 281.13 L 452.30 293.13"/>
    <path d="M 452.30 305.64 L 465.76 271.80"/>
    <path d="M 467.79 285.97 L 464.95 290.45"/>
    <path d="M 461.04 304.63 L 478.97 245.99"/>
    <path d="M 485.66 245.08 L 486.89 254.19"/>
    <path d="M 477.02 265.30 L 484.33 268.26"/>
    <path d="M 490.47 281.90 L 492.57 250.80"/>
    <path d="M 500.91 251.65 L 501.91 254.60"/>
    <path d="M 495.32 268.36 L 501.62 267.88"/>
    <path d="M 504.38 279.11 L 505.04 287.31"/>
    <path d="M 505.04 295.58 L 514.75 255.28"/>
    <path d="M 513.26 267.14 L 520.34 284.91"/>
    <path d="M 520.34 293.54 L 531.52 254.93"/>
    <path d="M 533.92 264.58 L 530.39 267.65"/>
    <path d="M 530.68 277.44 L 525.41 283.07"/>
    <path d="M 528.35 292.86 L 674.01 433.18"/>
    <path d="M 684.00 432.79 L 677.78 450.79"/>
    <path d="M 680.62 451.86 L 680.13 473.77"/>
    <path d="M 691.10 474.68 L 689.05 454.14"/>
    <path d="M 695.95 455.29 L 727.74 438.93"/>
    <path d="M 718.66 450.14 L 752.12 438.25"/>
    <path d="M 752.12 445.31 L 777.44 430.76"/>
    <path d="M 777.44 446.50 L 732.48 436.78"/>
    <path d="M 733.57 445.06 L 706.20 444.42"/>
    <path d="M 713.35 445.14 L 739.56 425.88"/>
    <path d="M 732.31 434.16 L 390.30 143.82"/>
    <path d="M 399.24 142.90 L 376.84 143.42"/>
    <path d="M 381.51 144.35 L 63.42 427.92"/>
    <path d="M 63.42 491.46 L 291.61 125.42"/>
    <path d="M 296.23 124.89 L 293.69 113.24"/>
    <path d="M 299.71 112.71 L 306.09 139.54"/>
    <path d="M 312.17 139.08 L 294.36 102.04"/>
    <path d="M 298.92 101.38 L 309.43 120.37"/>
    <path d="M 303.44 129.92 L 304.15 101.85"/>
    <path d="M 308.28 102.15 L 319.75 133.51"/>
    <path d="M 315.84 144.22 L 330.93 133.38"/>
    <path d="M 335.81 143.23 L 334.73 120.42"/>
    <path d="M 339.10 130.27 L 330.21 109.01"/>
    <path d="M 338.70 118.89 L 346.91 112.19"/>
    <path d="M 344.81 125.80 L 363.16 126.25"/>
    <path d="M 350.89 151.70 L 352.28 96.61"/>
    <path d="M 345.18 110.22 L 369.29 96.33"/>
    <path d="M 369.59 108.17 L 378.21 131.09"/>
    <path d="M 382.55 130.11 L 381.14 116.74"/>
    <path d="M 387.27 115.65 L 395.01 114.89"/>
    <path d="M 396.85 115.45 L 526.80 875.06"/>
    <path d="M 531.46 874.76 L 514.67 880.68"/>
    <path d="M 518.45 890.56 L 505.38 870.49"/>
    <path d="M 503.95 882.27 L 506.46 885.98"/>
    <path d="M 500.27 897.76 L 493.54 865.02"/>
    <path d="M 505.72 867.05 L 488.90 870.13"/>
    <path d="M 490.10 879.58 L 476.14 865.47"/>
    <path d="M 479.22 865.85 L 459.89 882.61"/>
    <path d="M 469.75 881.72 L 469.66 887.63"/>
    <path d="M 462.45 899.51 L 446.06 874.94"/>
    <path d="M 451.97 875.19 L 452.47 875.10"/>
    <path d="M 453.02 886.73 L 449.77 890.41"/>
    <path d="M 448.95 902.04 L 438.79 890.88"/>
    <path d="M 428.62 905.48 L 425.39 866.33"/>
    <path d="M 435.93 880.71 L 371.06 884.16"/>
    <path d="M 374.08 895.52 L 338.22 886.56"/>
    <path d="M 343.13 885.44 L 336.90 870.42"/>
    <path d="M 345.52 870.41 L 320.75 884.46"/>
    <path d="M 327.68 883.86 L 320.78 866.42"/>
    <path d="M 328.97 866.43 L 308.24 879.36"/>
    <path d="M 293.02 900.33 L 324.23 892.92"/>
    <path d="M 321.18 904.37 L 342.67 893.26"/>
    <path d="M 335.34 906.87 L 355.94 899.43"/>
    <path d="M 360.90 912.83 L 408.70 906.13"/>
    <path d="M 412.23 919.54 L 943.31 468.03"/>
    <path d="M 943.31 475.11 L 943.31 455.37"/>
    <path d="M 943.31 462.46 L 935.17 427.97"/>
    <path d="M 935.17 435.08 L 1002.40 426.94"/>
    <path d="M 998.63 438.13 L 1018.75 426.69"/>
    <path d="M 1022.25 436.32 L 1010.41 436.85"/>
    <path d="M 1010.86 444.78 L 1019.03 437.12"/>
    <path d="M 1022.34 446.75 L 994.29 439.44"/>
    <path d="M 996.60 450.62 L 960.02 444.55"/>
    <path d="M 960.02 454.41 L 1027.21 449.54"/>
    <path d="M 1023.00 457.61 L 1012.50 449.76"/>
    <path d="M 1015.52 459.24 L 988.50 451.53"/>
    <path d="M 988.55 472.21 L 1014.45 462.23"/>
  </g>
</svg>